HIERARCHY
ROOT Hips
{
  OFFSET -125.086 92.215 135.881
  CHANNELS 6 Xposition Yposition Zposition Zrotation Xrotation Yrotation
  JOINT LeftUpLeg
  {
    OFFSET 8.64259 1.95398 -2.38835
    CHANNELS 3 Zrotation Xrotation Yrotation
    JOINT LeftLeg
    {
      OFFSET 43.7702 0 0
      CHANNELS 3 Zrotation Xrotation Yrotation
      JOINT LeftFoot
      {
        OFFSET 40.6238 0 0
        CHANNELS 3 Zrotation Xrotation Yrotation
        JOINT LeftToeBase
        {
          OFFSET 12.7242 0 0
          CHANNELS 3 Zrotation Xrotation Yrotation
          End Site
          {
            OFFSET 0 0 0
          }
        }
      }
    }
  }
  JOINT RightUpLeg
  {
    OFFSET -8.2249 1.95398 -2.59336
    CHANNELS 3 Zrotation Xrotation Yrotation
    JOINT RightLeg
    {
      OFFSET 43.5653 0 0
      CHANNELS 3 Zrotation Xrotation Yrotation
      JOINT RightFoot
      {
        OFFSET 40.6238 0 0
        CHANNELS 3 Zrotation Xrotation Yrotation
        JOINT RightToeBase
        {
          OFFSET 12.7242 0 0
          CHANNELS 3 Zrotation Xrotation Yrotation
          End Site
          {
            OFFSET 0 0 0
          }
        }
      }
    }
  }
  JOINT Spine
  {
    OFFSET 0.165834 0.87714 6.61349
    CHANNELS 3 Zrotation Xrotation Yrotation
    JOINT Spine1
    {
      OFFSET 7.38963 1.71661e-005 0
      CHANNELS 3 Zrotation Xrotation Yrotation
      JOINT Spine2
      {
        OFFSET 11.9445 1.14441e-005 0
        CHANNELS 3 Zrotation Xrotation Yrotation
        JOINT Spine3
        {
          OFFSET 14.7254 4.19617e-005 0
          CHANNELS 3 Zrotation Xrotation Yrotation
          JOINT Spine4
          {
            OFFSET 10.9679 0 0
            CHANNELS 3 Zrotation Xrotation Yrotation
            JOINT RightShoulder
            {
              OFFSET 2.46616 -1.6653 3.69651
              CHANNELS 3 Zrotation Xrotation Yrotation
              JOINT RightArm
              {
                OFFSET 13.0012 0 0
                CHANNELS 3 Zrotation Xrotation Yrotation
                JOINT RightForeArm
                {
                  OFFSET 28.7848 1.52588e-005 0
                  CHANNELS 3 Zrotation Xrotation Yrotation
                  JOINT RightHand
                  {
                    OFFSET 26.5688 1.52588e-005 0
                    CHANNELS 3 Zrotation Xrotation Yrotation
                    End Site
                    {
                      OFFSET 0 0 0
                    }
                  }
                }
              }
            }
            JOINT LeftShoulder
            {
              OFFSET 2.38034 -1.29275 -3.7523
              CHANNELS 3 Zrotation Xrotation Yrotation
              JOINT LeftArm
              {
                OFFSET 16.3182 6.10352e-005 0
                CHANNELS 3 Zrotation Xrotation Yrotation
                JOINT LeftForeArm
                {
                  OFFSET 27.0901 0 0
                  CHANNELS 3 Zrotation Xrotation Yrotation
                  JOINT LeftHand
                  {
                    OFFSET 24.5451 1.52588e-005 0
                    CHANNELS 3 Zrotation Xrotation Yrotation
                    End Site
                    {
                      OFFSET 0 0 0
                    }
                  }
                }
              }
            }
            JOINT Neck
            {
              OFFSET 5.0226 -0.0266342 0
              CHANNELS 3 Zrotation Xrotation Yrotation
              JOINT Head
              {
                OFFSET 6.69363 2.86102e-005 0
                CHANNELS 3 Zrotation Xrotation Yrotation
                End Site
                {
                  OFFSET 0 0 0
                }
              }
            }
          }
        }
      }
    }
  }
}
MOTION
Frames:	7
Frame Time:	0.0416667
-4.67799 82.2822 -8.04791 129.069 43.1116 66.4512 179.909 27.7364 93.3635 -61.2458 12.5393 5.33344 55.7386 2.89178 8.01356 63.7336 -1.53282 7.57367 173.82 22.9016 93.729 -68.1351 -25.3678 -0.35128 54.08 0.0149272 -3.40686 54.7262 -4.37169 -2.44943 -0.617035 9.8716 -90.4161 7.12541 -1.41118 -0.75739 -4.54495 -1.44314 -0.694545 -27.0825 -1.11833 -1.1465 -7.0699 -1.11833 -1.14652 109.336 -51.1367 -71.1521 24.9755 -11.6142 6.89375 0.360255 -27.5963 -23.2616 -2.12867 -0.0299496 -4.90696 -77.8236 -48.8516 96.9 -17.8822 7.7391 -26.3722 22.6588 28.2594 -56.9507 3.02082 -0.517434 -13.415 -4.87599 1.67704 -9.46369 -17.2489 0.741837 15.5415 
4.34923 84.1464 -19.2517 125.859 40.5421 64.9936 -178.076 22.9956 89.8697 -34.1387 14.1324 2.51369 41.9239 -6.81126 -0.56274 68.8135 -1.18172 9.64905 174.71 16.9876 89.2389 -75.508 -22.3657 -2.72178 60.7622 -4.57131 -3.68642 57.7952 -4.99592 -2.93401 -0.319401 9.66072 -89.887 7.55025 -0.588725 0.25417 -4.12063 -0.576969 0.27983 -26.6564 -0.637891 0.0654833 -6.64372 -0.637883 0.06548 109.577 -50.6432 -70.7145 25.0831 -13.096 4.89616 1.00803 -22.616 -25.1889 -3.35265 -0.0251125 -4.97574 -77.3432 -48.6494 97.6424 -16.4401 9.56063 -19.4041 24.6751 25.5398 -62.5525 -4.64896 0.0860403 -12.3537 -5.45367 1.19299 -9.14427 -18.7228 0.101962 14.6104 
13.0858 83.5555 -30.0596 122.221 34.8474 70.2206 -172.724 24.5265 91.8731 -46.4798 15.6761 0.59487 48.1422 -4.12493 5.02354 50.1206 -1.31684 1.23818 177.031 22.8489 89.7568 -88.2714 -19.5792 -3.68778 45.2095 4.74761 8.76174 50.9014 -3.45358 -2.18467 -0.176597 9.68983 -89.9122 7.49423 -0.31453 0.188894 -4.1767 -0.305905 0.202544 -26.712 -0.356746 0.0856315 -6.6993 -0.356748 0.0856308 108.384 -49.4837 -72.4107 24.8195 -18.968 2.94402 5.2263 -11.1562 -30.2799 -4.38773 0.0488032 -7.22963 -78.478 -47.6121 95.8716 -15.9909 7.4561 -10.4727 27.914 21.8471 -67.3264 -10.1923 0.580261 -14.2295 -3.09755 3.18099 -12.2496 -18.7236 1.88366 20.1587 
20.822 82.9727 -38.7722 124.223 34.8487 67.4553 -170.846 22.1649 89.0176 -61.1567 18.1426 0.456469 57.8488 3.85715 16.744 41.4772 -1.11843 -2.00612 174.2 28.2619 87.3301 -91.4044 -16.7194 -3.14004 52.0903 2.4723 14.8527 38.9295 -1.59627 -5.31054 -0.716499 10.0433 -89.6098 6.79126 -1.26444 0.820281 -4.87937 -1.22709 0.875133 -27.4187 -1.45249 0.402294 -7.40608 -1.45249 0.402289 109.664 -51.1438 -70.6529 24.5343 -19.5369 0.463614 7.03136 -6.98079 -32.3756 -10.078 -0.0484259 -5.04887 -78.7137 -46.9221 95.4933 -12.1478 5.83493 -17.5054 30.8337 29.8755 -64.1949 -10.1264 0.626187 -14.9444 -1.45377 3.88693 -13.9298 -18.9436 2.43717 23.6674 
27.4765 84.3999 -46.1869 120.622 35.7023 70.4896 -169.723 19.9903 89.3966 -65.624 19.7443 0.74055 61.6614 7.78474 19.6295 49.3172 -1.54072 3.21879 170.775 32.4951 89.3548 -74.3061 -16.4929 -0.195645 54.6267 1.99504 15.8918 49.3193 -3.13318 0.716777 -0.699502 9.91663 -89.6989 7.04391 -1.2675 0.648656 -4.62661 -1.23773 0.703809 -27.1665 -1.40387 0.237658 -7.1538 -1.40383 0.237668 110.294 -51.9901 -69.8178 25.9332 -21.816 1.08674 9.09967 -4.456 -32.405 -10.7922 -0.0604937 -4.71959 -79.1711 -46.7541 94.7668 -12.5139 3.50127 -27.9231 27.8396 36.7119 -56.2531 -10.5815 0.721439 -15.6481 -1.84354 3.82634 -13.1039 -17.2319 2.53789 24.0959 
33.5486 86.2579 -52.4599 119.917 40.7816 69.0878 -172.221 18.1987 87.838 -68.4342 19.384 1.81316 60.0818 5.97623 15.0259 55.3421 -1.70869 4.78078 168.76 28.4816 87.0707 -43.8505 -15.1586 4.09042 45.4752 5.59688 15.314 63.3735 -4.00141 7.35324 -1.12307 9.91106 -89.6698 7.05852 -2.10107 0.742776 -4.61098 -2.06635 0.834554 -27.1598 -2.22713 0.0766779 -7.14719 -2.22711 0.0766772 110.692 -52.5554 -69.3047 27.6931 -22.2995 4.22371 7.05469 -6.10118 -34.8214 -3.88307 -0.00677135 -5.73545 -79.1814 -45.9603 94.7288 -14.69 5.46165 -30.9279 14.1912 23.4893 -51.002 -4.88116 0.0911706 -11.539 -1.26593 3.47886 -12.4172 -13.7012 2.98134 23.4655 
39.983 86.786 -58.6953 120.098 45.1607 67.1465 -173.108 20.9017 89.269 -75.8636 18.7342 2.54135 50.4055 -1.29252 -0.700219 58.0628 -2.11236 2.5536 170.366 24.7152 84.4408 -31.7835 -9.8351 4.52158 42.5888 7.09404 16.5548 41.1593 -0.953942 1.72859 -1.07618 9.89506 -89.7589 7.08733 -2.04579 0.568299 -4.58221 -2.01881 0.65782 -27.1301 -2.12197 -0.0730947 -7.11745 -2.12197 -0.0730977 110.341 -52.1834 -69.7748 30.6476 -21.8735 9.36945 6.51301 -4.68223 -37.5334 -3.96067 0.00133515 -6.10758 -79.1819 -45.1938 94.7051 -15.5467 9.84713 -34.4634 11.3242 17.3537 -56.5755 1.98487 -0.340158 -11.2029 -3.01072 1.97233 -9.0513 -9.41206 2.09394 17.6718 
